*
G04 Mass Parameters ***
*
G04 Image ***
*
%INZ:\ORCAD\LAYOUT\#TEST\BATTERY_CONTROLLER_V01\CIN\LAYOUT\BATT_MANAGER-V01-9.SMB*%
%ICAS*%
%MOIN*%
%IPPOS*%
%ASAXBY*%
G74*%FSLAN2X34Y34*%
*
G04 Aperture Definitions ***
*
%ADD10C,0.2362*%
%ADD11R,0.0380X0.0320*%
%ADD12R,0.0600X0.0600*%
%ADD13R,0.0320X0.0380*%
%ADD14R,0.1023X0.0838*%
%ADD15R,0.1023X0.0401*%
%ADD16C,0.1575*%
%ADD17C,0.1260*%
%ADD18R,0.0590X0.0472*%
%ADD19R,0.0748X0.1181*%
%ADD20C,0.0472*%
%ADD21R,0.0787X0.0787*%
%ADD22R,0.0787X0.0630*%
%ADD23R,0.0590X0.1181*%
%ADD24R,0.1968X0.1968*%
%ADD25R,0.0275X0.0649*%
%ADD26R,0.2000X0.0551*%
%ADD27R,0.0551X0.2000*%
%ADD28C,0.0984*%
%ADD29R,0.0984X0.0984*%
%ADD30R,0.0630X0.1181*%
%ADD31R,0.0709X0.0110*%
%ADD32R,0.0236X0.0512*%
%ADD33R,0.0126X0.0709*%
%ADD34R,0.0512X0.0236*%
%ADD35R,0.0157X0.0315*%
%ADD36R,0.0787X0.0984*%
%ADD37C,0.0197*%
%ADD38C,0.0083*%
%ADD39C,0.0098*%
%ADD40C,0.0315*%
%ADD41C,0.0039*%
%ADD42C,0.0100*%
%ADD43C,0.0197*%
%ADD44C,0.0197*%
%ADD45C,0.0118*%
%ADD46C,0.0079*%
%ADD47C,0.0197*%
%ADD48C,0.0472*%
%ADD49R,0.0500X0.0500*%
%ADD50R,0.0340X0.0500*%
%ADD51R,0.0340X0.0400*%
%ADD52R,0.1030X0.1080*%
%ADD53R,0.1460X0.1020*%
%ADD54R,0.0500X0.0340*%
%ADD55R,0.0400X0.0340*%
%ADD56R,0.0787X0.0236*%
%ADD57C,0.0000*%
%ADD58C,0.0591*%
%ADD59R,0.1063X0.0878*%
%ADD60R,0.1063X0.0441*%
%ADD61C,0.2834*%
%ADD62C,0.1299*%
%ADD63C,0.0551*%
%ADD64R,0.0827X0.0827*%
%ADD65R,0.2008X0.2008*%
%ADD66R,0.0315X0.0689*%
%ADD67R,0.2039X0.0590*%
%ADD68R,0.0590X0.2039*%
%ADD69C,0.1024*%
%ADD70R,0.1024X0.1024*%
%ADD71R,0.0748X0.0110*%
%ADD72R,0.0157X0.0748*%
%ADD73C,0.0157*%
%ADD74C,0.0157*%
%ADD75C,0.0157*%
%ADD76R,0.0866X0.0315*%
*
G04 Plot Data ***
*
G54D10*
X0018425Y0001339D03*
X0009764Y0001398D03*
X0001417Y0024843D03*
X0018366Y0024862D03*
G54D11*
X0019226Y0017555D03*
Y0018115D03*
X0016732Y0006102D03*
Y0005542D03*
X0016004Y0022028D03*
Y0021468D03*
X0018484Y0017570D03*
Y0018130D03*
X0005177Y0012559D03*
Y0013119D03*
X0017652Y0015020D03*
Y0014460D03*
X0016890Y0015020D03*
Y0014460D03*
X0015236Y0022028D03*
Y0021468D03*
G54D12*
X0014311Y0020686D03*
X0013011D03*
G54D13*
X0012894Y0002835D03*
X0013454D03*
X0007526Y0012579D03*
X0008086D03*
X0008353Y0013392D03*
X0007793D03*
X0012323Y0023051D03*
X0012883D03*
X0013563D03*
X0014123D03*
X0006752Y0021004D03*
X0007312D03*
X0007303Y0021732D03*
X0006743D03*
X0014744Y0025079D03*
X0015304D03*
X0015413Y0024154D03*
X0014853D03*
X0014783Y0006929D03*
X0015343D03*
X0014862Y0023445D03*
X0015422D03*
X0013307Y0003780D03*
X0012747D03*
X0014035Y0007008D03*
X0013475D03*
X0011752Y0022303D03*
X0012312D03*
X0011909Y0025217D03*
X0011349D03*
X0013031Y0012343D03*
X0012471D03*
X0011752Y0013839D03*
X0011192D03*
X0010965Y0013110D03*
X0010405D03*
G54D18*
X0010748Y0021476D03*
Y0020689D03*
G54D19*
X0012008Y0001358D03*
X0013008D03*
X0014008D03*
X0015008D03*
G54D22*
X0019232Y0016555D03*
Y0015555D03*
Y0014555D03*
Y0013555D03*
Y0012555D03*
G54D34*
X0013237Y0021640D03*
Y0022012D03*
Y0022388D03*
X0014125D03*
Y0021640D03*
G54D49*
X0010512Y0016772D03*
X0009672D03*
X0003091Y0013248D03*
X0002251D03*
X0003228Y0019439D03*
X0002388D03*
G54D50*
X0011989Y0020743D03*
X0015609Y0019902D03*
G54D51*
X0011619Y0021533D03*
X0012359D03*
X0015239Y0020692D03*
X0015979D03*
G54D52*
X0003622Y0012047D03*
X0001772D03*
X0003750Y0018130D03*
X0001900D03*
G54D53*
X0006142Y0006319D03*
Y0003509D03*
G54D54*
X0015022Y0003500D03*
G54D55*
X0014232Y0003130D03*
Y0003870D03*
G54D61*
X0002711Y0002868D03*
X0002750Y0015565D03*
X0002711Y0008951D03*
X0002770Y0021726D03*
G54D62*
X0001555Y0001713D03*
X0003866D03*
Y0004024D03*
X0001555D03*
X0001594Y0014409D03*
X0003906D03*
Y0016720D03*
X0001594D03*
X0001555Y0007795D03*
X0003866D03*
Y0010106D03*
X0001555D03*
X0001614Y0020571D03*
X0003925D03*
Y0022882D03*
X0001614D03*
G54D63*
X0017303Y0007283D03*
Y0003740D03*
G54D64*
X0018878Y0006102D03*
Y0004921D03*
X0017697Y0006102D03*
Y0004921D03*
G54D69*
X0017344Y0022244D03*
Y0019687D03*
X0019114D03*
G54D70*
Y0022244D03*
G54D73*
X0009642Y0024494D03*
X0011106Y0022808D03*
X0014302Y0019054D03*
X0013237Y0014800D03*
X0012259Y0013448D03*
X0013157Y0013281D03*
X0010326Y0012613D03*
X0009030Y0011014D03*
X0009085Y0008215D03*
X0009061Y0009750D03*
X0013006Y0008120D03*
X0013674Y0007491D03*
X0007345Y0001519D03*
X0016633Y0001622D03*
X0015456Y0002839D03*
X0018979Y0003260D03*
X0017419Y0003300D03*
X0015480Y0004724D03*
X0015686Y0009201D03*
X0016601Y0012159D03*
X0016656Y0017464D03*
X0017619Y0018665D03*
X0015630Y0019118D03*
X0013730Y0018561D03*
X0013634Y0016844D03*
X0015185Y0017933D03*
X0018191Y0014402D03*
Y0015166D03*
X0011189Y0002172D03*
X0015938Y0002219D03*
X0012422Y0006872D03*
X0010632Y0006809D03*
X0013201Y0011318D03*
X0012263Y0011358D03*
X0011324Y0011310D03*
X0010465Y0011461D03*
X0011889Y0008893D03*
X0013575Y0009433D03*
X0015058Y0007413D03*
X0017210Y0006879D03*
X0019130Y0007326D03*
X0018303Y0007286D03*
X0017428Y0008940D03*
X0016307Y0008590D03*
X0015639Y0010578D03*
X0017110Y0013091D03*
X0015655Y0012733D03*
X0014886Y0021020D03*
X0010304Y0023137D03*
X0018304Y0022907D03*
X0011354Y0024362D03*
X0012570Y0023885D03*
X0014797Y0022851D03*
X0016062Y0023519D03*
X0013787Y0024386D03*
X0007920Y0001030D03*
X0002712Y0011797D03*
X0006084Y0011731D03*
X0008314Y0011654D03*
X0019260Y0000357D03*
X0016876Y0025603D03*
X0009122Y0025526D03*
X0006385Y0025311D03*
X0003934Y0025333D03*
X0008839Y0024889D03*
X0002386Y0024987D03*
X0004649Y0005145D03*
X0003468D03*
X0002287D03*
X0001106D03*
X0000515Y0003964D03*
X0006147Y0002307D03*
X0002685Y0000463D03*
X0002643Y0002421D03*
X0017130Y0000378D03*
X0014857Y0000416D03*
X0012566Y0000322D03*
X0006370Y0000791D03*
X0005264Y0002033D03*
X0004517Y0002369D03*
X0008274Y0000512D03*
X0000515Y0001602D03*
G54D74*
X0016063Y0022795D03*
X0005851Y0008663D03*
X0010472Y0009154D03*
X0019272Y0011673D03*
X0019232Y0018701D03*
X0019272Y0008976D03*
X0014083Y0007422D03*
X0013425Y0020118D03*
X0012598Y0019390D03*
X0012736Y0011181D03*
X0012205Y0008130D03*
X0009882Y0011398D03*
X0011161Y0008130D03*
X0011476Y0018799D03*
X0006743Y0023375D03*
X0011850Y0019803D03*
X0009193Y0018799D03*
X0006890D03*
X0018484Y0017244D03*
X0012776Y0015315D03*
X0014464Y0013756D03*
Y0016511D03*
X0011024Y0005453D03*
X0009055Y0022343D03*
X0011457Y0009016D03*
X0011772Y0011181D03*
X0013701Y0015866D03*
X0011889Y0003891D03*
X0013740Y0008110D03*
X0018189Y0015669D03*
X0017520Y0015610D03*
X0015906Y0024154D03*
X0010177Y0024429D03*
X0012165Y0013839D03*
X0012067Y0013110D03*
X0009705Y0020335D03*
X0007362D03*
X0013681Y0012362D03*
X0015748Y0008484D03*
X0012539Y0017579D03*
X0006240Y0014961D03*
X0016161Y0008071D03*
X0016594Y0011693D03*
X0015738Y0004419D03*
X0015472Y0006378D03*
X0013622Y0004705D03*
X0014744Y0025610D03*
X0013720Y0005059D03*
X0008504Y0005453D03*
X0006043D03*
X0010965Y0012717D03*
X0011772Y0013406D03*
G54D75*
X0010846Y0025650D03*
X0014134Y0024783D03*
X0003866Y0014193D03*
X0005177Y0013917D03*
X0012856Y0017893D03*
X0005846Y0014961D03*
X0014685Y0019272D03*
G54D76*
X0014764Y0006181D03*
Y0005681D03*
Y0005181D03*
Y0004681D03*
X0012461D03*
Y0005181D03*
Y0005681D03*
Y0006181D03*
M02*
