*
G04 Mass Parameters ***
*
G04 Image ***
*
%INZ:\ORCAD\LAYOUT\#TEST\BATTERY_CONTROLLER_V01\CIN\LAYOUT\BATT_MANAGER-V01-9.SMT*%
%ICAS*%
%MOIN*%
%IPPOS*%
%ASAXBY*%
G74*%FSLAN2X34Y34*%
*
G04 Aperture Definitions ***
*
%ADD10C,0.2362*%
%ADD11R,0.0380X0.0320*%
%ADD12R,0.0600X0.0600*%
%ADD13R,0.0320X0.0380*%
%ADD14R,0.1023X0.0838*%
%ADD15R,0.1023X0.0401*%
%ADD16C,0.1575*%
%ADD17C,0.1260*%
%ADD18R,0.0590X0.0472*%
%ADD19R,0.0748X0.1181*%
%ADD20C,0.0472*%
%ADD21R,0.0787X0.0787*%
%ADD22R,0.0787X0.0630*%
%ADD23R,0.0590X0.1181*%
%ADD24R,0.1968X0.1968*%
%ADD25R,0.0275X0.0649*%
%ADD26R,0.2000X0.0551*%
%ADD27R,0.0551X0.2000*%
%ADD28C,0.0984*%
%ADD29R,0.0984X0.0984*%
%ADD30R,0.0630X0.1181*%
%ADD31R,0.0709X0.0110*%
%ADD32R,0.0236X0.0512*%
%ADD33R,0.0126X0.0709*%
%ADD34R,0.0512X0.0236*%
%ADD35R,0.0157X0.0315*%
%ADD36R,0.0787X0.0984*%
%ADD37C,0.0197*%
%ADD38C,0.0083*%
%ADD39C,0.0098*%
%ADD40C,0.0315*%
%ADD41C,0.0039*%
%ADD42C,0.0100*%
%ADD43C,0.0197*%
%ADD44C,0.0197*%
%ADD45C,0.0118*%
%ADD46C,0.0079*%
%ADD47C,0.0197*%
%ADD48C,0.0472*%
%ADD49R,0.0500X0.0500*%
%ADD50R,0.0340X0.0500*%
%ADD51R,0.0340X0.0400*%
%ADD52R,0.1030X0.1080*%
%ADD53R,0.1460X0.1020*%
%ADD54R,0.0500X0.0340*%
%ADD55R,0.0400X0.0340*%
%ADD56R,0.0787X0.0236*%
%ADD57C,0.0000*%
%ADD58C,0.0591*%
%ADD59R,0.1063X0.0878*%
%ADD60R,0.1063X0.0441*%
%ADD61C,0.2834*%
%ADD62C,0.1299*%
%ADD63C,0.0551*%
%ADD64R,0.0827X0.0827*%
%ADD65R,0.2008X0.2008*%
%ADD66R,0.0315X0.0689*%
%ADD67R,0.2039X0.0590*%
%ADD68R,0.0590X0.2039*%
%ADD69C,0.1024*%
%ADD70R,0.1024X0.1024*%
%ADD71R,0.0748X0.0110*%
%ADD72R,0.0157X0.0748*%
%ADD73C,0.0157*%
%ADD74C,0.0157*%
%ADD75C,0.0157*%
*
G04 Plot Data ***
*
G54D42*
G01X0007709Y0000389D02*
X0007542D01*
X0007626D02*
Y0000889D01*
X0007542Y0000806D01*
X0007009Y0000389D02*
X0006926Y0000473D01*
X0006884Y0000556D01*
Y0000723D01*
X0006926Y0000806D01*
X0007009Y0000889D01*
X0007092D01*
X0007176Y0000806D01*
X0007217Y0000723D01*
Y0000556D01*
X0007176Y0000473D01*
X0007092Y0000389D01*
X0007009D01*
X0006642Y0000889D02*
Y0000723D01*
X0006476Y0000389D01*
X0006309Y0000723D01*
Y0000889D01*
X0006067Y0000223D02*
X0005734D01*
X0005492Y0000389D02*
X0005201D01*
Y0000889D01*
X0004834Y0000639D02*
X0004959Y0000389D01*
X0004626Y0000639D02*
X0004876D01*
X0004959Y0000723D01*
Y0000806D01*
X0004876Y0000889D01*
X0004626D01*
Y0000389D01*
X0004217D02*
Y0000889D01*
X0004384D02*
X0004051D01*
X0003809Y0000473D02*
X0003767Y0000389D01*
X0003517D01*
X0003476Y0000473D01*
Y0000806D01*
X0003517Y0000889D01*
X0003767D01*
X0003809Y0000806D01*
X0003234Y0000223D02*
X0002901D01*
X0002492Y0000389D02*
Y0000889D01*
X0002659D02*
X0002326D01*
X0001917Y0000389D02*
Y0000889D01*
X0002084D02*
X0001751D01*
X0001509Y0000556D02*
X0001176D01*
X0001509Y0000389D02*
Y0000639D01*
X0001384Y0000889D01*
X0001301D01*
X0001176Y0000639D01*
Y0000389D01*
X0000642D02*
Y0000889D01*
X0000601Y0000389D02*
X0000851D01*
X0000934Y0000473D01*
Y0000556D01*
X0000892Y0000639D01*
X0000642D02*
X0000892D01*
X0000934Y0000723D01*
Y0000806D01*
X0000851Y0000889D01*
X0000601D01*
G54D10*
X0018425Y0001339D03*
X0009764Y0001398D03*
X0001417Y0024843D03*
X0018366Y0024862D03*
G54D11*
X0011580Y0005906D03*
Y0005346D03*
X0013677Y0011393D03*
Y0011953D03*
X0011772Y0011772D03*
Y0012332D03*
X0010965Y0011791D03*
Y0012351D03*
X0019404Y0007846D03*
Y0008406D03*
X0017244Y0010206D03*
Y0009646D03*
X0013346Y0006457D03*
Y0005897D03*
X0013681Y0010118D03*
Y0010678D03*
X0010965Y0010177D03*
Y0010737D03*
X0016142Y0011772D03*
Y0011212D03*
X0017657Y0017480D03*
Y0018040D03*
X0016531Y0020654D03*
Y0020094D03*
X0016535Y0023169D03*
Y0022609D03*
Y0021929D03*
Y0021369D03*
X0011673Y0021594D03*
Y0021034D03*
X0017244Y0010925D03*
Y0011485D03*
X0012382Y0005895D03*
Y0005335D03*
X0012579Y0008001D03*
Y0007441D03*
X0012751Y0011728D03*
Y0012288D03*
X0016929Y0018031D03*
Y0018591D03*
X0015787Y0019814D03*
Y0020374D03*
X0015055Y0020378D03*
Y0019818D03*
X0015433Y0023622D03*
Y0024182D03*
X0014291Y0023613D03*
Y0024173D03*
X0011102Y0023799D03*
Y0023239D03*
X0010197Y0025492D03*
Y0024932D03*
G54D12*
X0005453Y0005079D03*
Y0003779D03*
X0015433Y0022795D03*
X0014133D03*
X0010177Y0023799D03*
Y0022499D03*
G54D13*
X0010398Y0007515D03*
X0009838D03*
X0013331Y0003056D03*
X0012771D03*
X0013106Y0003902D03*
X0013666D03*
X0012012Y0003056D03*
X0011452D03*
X0014070Y0003075D03*
X0014630D03*
X0013031Y0009469D03*
X0012471D03*
X0012461Y0008720D03*
X0013021D03*
X0010807Y0008583D03*
X0011367D03*
X0010073Y0008401D03*
X0009513D03*
X0011535Y0009449D03*
X0010975D03*
X0009508Y0009154D03*
X0010068D03*
X0015571Y0025079D03*
X0015011D03*
X0016024Y0018602D03*
X0015464D03*
X0014232D03*
X0014792D03*
X0009508Y0011831D03*
X0010068D03*
X0016133Y0012638D03*
X0016693D03*
X0018681Y0009508D03*
X0018121D03*
X0011662Y0022362D03*
X0011102D03*
G54D18*
X0010748Y0021476D03*
Y0020689D03*
G54D19*
X0012008Y0001358D03*
X0013008D03*
X0014008D03*
X0015008D03*
G54D22*
X0019232Y0016555D03*
Y0015555D03*
Y0014555D03*
Y0013555D03*
Y0012555D03*
G54D23*
X0013130Y0023622D03*
X0011949D03*
G54D30*
X0012507Y0025250D03*
G54D32*
X0011161Y0006693D03*
X0011533D03*
X0011909D03*
Y0007658D03*
X0011535D03*
X0011161D03*
X0009508Y0009941D03*
X0009880D03*
X0010256D03*
Y0010905D03*
X0009882D03*
X0009508D03*
X0018681Y0008740D03*
X0018309D03*
X0017933D03*
Y0007852D03*
X0018681D03*
G54D34*
X0011437Y0004646D03*
Y0004274D03*
Y0003898D03*
X0012401D03*
Y0004272D03*
Y0004646D03*
X0011771Y0010886D03*
Y0010514D03*
Y0010138D03*
X0012736D03*
Y0010512D03*
Y0010886D03*
G54D35*
X0016250Y0004006D03*
X0015994D03*
X0015738D03*
Y0003238D03*
X0015994D03*
X0016250D03*
G54D36*
X0014280Y0017776D03*
X0016004D03*
G54D59*
X0018345Y0011470D03*
G54D60*
Y0010594D03*
G54D61*
X0002711Y0002868D03*
X0002750Y0015565D03*
X0002711Y0008951D03*
X0002770Y0021726D03*
G54D62*
X0001555Y0001713D03*
X0003866D03*
Y0004024D03*
X0001555D03*
X0001594Y0014409D03*
X0003906D03*
Y0016720D03*
X0001594D03*
X0001555Y0007795D03*
X0003866D03*
Y0010106D03*
X0001555D03*
X0001614Y0020571D03*
X0003925D03*
Y0022882D03*
X0001614D03*
G54D63*
X0017303Y0007283D03*
Y0003740D03*
G54D64*
X0018878Y0006102D03*
Y0004921D03*
X0017697Y0006102D03*
Y0004921D03*
G54D65*
X0007264Y0003799D03*
X0009665D03*
X0008583Y0021988D03*
X0007992Y0017146D03*
X0010276D03*
X0006260Y0021988D03*
G54D66*
X0008014Y0005453D03*
X0007514D03*
X0007014D03*
X0006514D03*
X0010415D03*
X0009915D03*
X0009415D03*
X0008915D03*
X0007833Y0020335D03*
X0008333D03*
X0008833D03*
X0009333D03*
X0008742Y0018799D03*
X0008242D03*
X0007742D03*
X0007242D03*
X0011026D03*
X0010526D03*
X0010026D03*
X0009526D03*
X0005510Y0020335D03*
X0006010D03*
X0006510D03*
X0007010D03*
G54D67*
X0004075Y0019390D03*
Y0018445D03*
X0001772Y0019390D03*
Y0018445D03*
G54D68*
X0005571Y0007224D03*
X0006516D03*
X0005571Y0010138D03*
X0006516D03*
Y0013543D03*
X0005571D03*
X0006516Y0016358D03*
X0005571D03*
G54D69*
X0017344Y0022244D03*
Y0019687D03*
X0019114D03*
G54D70*
Y0022244D03*
G54D71*
X0015059Y0021339D03*
Y0021535D03*
Y0021732D03*
Y0021929D03*
Y0022125D03*
X0013132D03*
Y0021929D03*
Y0021732D03*
Y0021535D03*
Y0021339D03*
X0011523Y0025644D03*
Y0025447D03*
Y0025251D03*
Y0025054D03*
Y0024857D03*
X0013450D03*
Y0025054D03*
Y0025251D03*
Y0025447D03*
Y0025644D03*
G54D72*
X0018182Y0016511D03*
X0017927D03*
X0017671D03*
X0017415D03*
X0017160D03*
X0016904D03*
X0016648D03*
X0016393D03*
X0016137D03*
X0015881D03*
X0014854Y0013735D03*
X0015110D03*
X0015370D03*
X0015622D03*
X0015878D03*
X0016134D03*
X0016390D03*
X0016646D03*
X0016902D03*
X0017158D03*
X0014857Y0016511D03*
X0015112D03*
X0015624D03*
X0015368D03*
X0017414Y0013735D03*
X0017670D03*
X0017930D03*
X0018182D03*
G54D73*
X0009642Y0024494D03*
X0011106Y0022808D03*
X0014302Y0019054D03*
X0013237Y0014800D03*
X0012259Y0013448D03*
X0013157Y0013281D03*
X0010326Y0012613D03*
X0009030Y0011014D03*
X0009085Y0008215D03*
X0009061Y0009750D03*
X0013006Y0008120D03*
X0013674Y0007491D03*
X0007345Y0001519D03*
X0016633Y0001622D03*
X0015456Y0002839D03*
X0018979Y0003260D03*
X0017419Y0003300D03*
X0015480Y0004724D03*
X0015686Y0009201D03*
X0016601Y0012159D03*
X0016656Y0017464D03*
X0017619Y0018665D03*
X0015630Y0019118D03*
X0013730Y0018561D03*
X0013634Y0016844D03*
X0015185Y0017933D03*
X0018191Y0014402D03*
Y0015166D03*
X0011189Y0002172D03*
X0015938Y0002219D03*
X0012422Y0006872D03*
X0010632Y0006809D03*
X0013201Y0011318D03*
X0012263Y0011358D03*
X0011324Y0011310D03*
X0010465Y0011461D03*
X0011889Y0008893D03*
X0013575Y0009433D03*
X0015058Y0007413D03*
X0017210Y0006879D03*
X0019130Y0007326D03*
X0018303Y0007286D03*
X0017428Y0008940D03*
X0016307Y0008590D03*
X0015639Y0010578D03*
X0017110Y0013091D03*
X0015655Y0012733D03*
X0014886Y0021020D03*
X0010304Y0023137D03*
X0018304Y0022907D03*
X0011354Y0024362D03*
X0012570Y0023885D03*
X0014797Y0022851D03*
X0016062Y0023519D03*
X0013787Y0024386D03*
X0007920Y0001030D03*
X0002712Y0011797D03*
X0006084Y0011731D03*
X0008314Y0011654D03*
X0019260Y0000357D03*
X0016876Y0025603D03*
X0009122Y0025526D03*
X0006385Y0025311D03*
X0003934Y0025333D03*
X0008839Y0024889D03*
X0002386Y0024987D03*
X0004649Y0005145D03*
X0003468D03*
X0002287D03*
X0001106D03*
X0000515Y0003964D03*
X0006147Y0002307D03*
X0002685Y0000463D03*
X0002643Y0002421D03*
X0017130Y0000378D03*
X0014857Y0000416D03*
X0012566Y0000322D03*
X0006370Y0000791D03*
X0005264Y0002033D03*
X0004517Y0002369D03*
X0008274Y0000512D03*
X0000515Y0001602D03*
G54D74*
X0016063Y0022795D03*
X0005851Y0008663D03*
X0010472Y0009154D03*
X0019272Y0011673D03*
X0019232Y0018701D03*
X0019272Y0008976D03*
X0014083Y0007422D03*
X0013425Y0020118D03*
X0012598Y0019390D03*
X0012736Y0011181D03*
X0012205Y0008130D03*
X0009882Y0011398D03*
X0011161Y0008130D03*
X0011476Y0018799D03*
X0006743Y0023375D03*
X0011850Y0019803D03*
X0009193Y0018799D03*
X0006890D03*
X0018484Y0017244D03*
X0012776Y0015315D03*
X0014464Y0013756D03*
Y0016511D03*
X0011024Y0005453D03*
X0009055Y0022343D03*
X0011457Y0009016D03*
X0011772Y0011181D03*
X0013701Y0015866D03*
X0011889Y0003891D03*
X0013740Y0008110D03*
X0018189Y0015669D03*
X0017520Y0015610D03*
X0015906Y0024154D03*
X0010177Y0024429D03*
X0012165Y0013839D03*
X0012067Y0013110D03*
X0009705Y0020335D03*
X0007362D03*
X0013681Y0012362D03*
X0015748Y0008484D03*
X0012539Y0017579D03*
X0006240Y0014961D03*
X0016161Y0008071D03*
X0016594Y0011693D03*
X0015738Y0004419D03*
X0015472Y0006378D03*
X0013622Y0004705D03*
X0014744Y0025610D03*
X0013720Y0005059D03*
X0008504Y0005453D03*
X0006043D03*
X0010965Y0012717D03*
X0011772Y0013406D03*
G54D75*
X0010846Y0025650D03*
X0014134Y0024783D03*
X0003866Y0014193D03*
X0005177Y0013917D03*
X0012856Y0017893D03*
X0005846Y0014961D03*
X0014685Y0019272D03*
M02*
