%
T1C0.0118F200S100
X000515Y001602
X000515Y003964
X001106Y005145
X002287Y005145
X002386Y024987
X002643Y002421
X002685Y000463
X002712Y011797
X003468Y005145
X003866Y014193
X003934Y025333
X004517Y002369
X004649Y005145
X005177Y013917
X005264Y002033
X005846Y014961
X005851Y008663
X006043Y005453
X006084Y011731
X006147Y002307
X006240Y014961
X006370Y000791
X006385Y025311
X006743Y023375
X006890Y018799
X007345Y001519
X007362Y020335
X007920Y001030
X008274Y000512
X008314Y011654
X008504Y005453
X008839Y024889
X009030Y011014
X009055Y022343
X009061Y009750
X009085Y008215
X009122Y025526
X009193Y018799
X009642Y024494
X009705Y020335
X009882Y011398
X010177Y024429
X010304Y023137
X010326Y012613
X010465Y011461
X010472Y009154
X010632Y006809
X010846Y025650
X010965Y012717
X011024Y005453
X011106Y022808
X011161Y008130
X011189Y002172
X011324Y011310
X011354Y024362
X011457Y009016
X011476Y018799
X011772Y011181
X011772Y013406
X011850Y019803
X011889Y003891
X011889Y008893
X012067Y013110
X012165Y013839
X012205Y008130
X012259Y013448
X012263Y011358
X012422Y006872
X012539Y017579
X012566Y000322
X012570Y023885
X012598Y019390
X012736Y011181
X012776Y015315
X012856Y017893
X013006Y008120
X013157Y013281
X013201Y011318
X013237Y014800
X013425Y020118
X013575Y009433
X013622Y004705
X013634Y016844
X013674Y007491
X013681Y012362
X013701Y015866
X013720Y005059
X013730Y018561
X013740Y008110
X013787Y024386
X014083Y007422
X014134Y024783
X014302Y019054
X014464Y013756
X014464Y016511
X014685Y019272
X014744Y025610
X014797Y022851
X014857Y000416
X014886Y021020
X015058Y007413
X015185Y017933
X015456Y002839
X015472Y006378
X015480Y004724
X015630Y019118
X015639Y010578
X015655Y012733
X015686Y009201
X015738Y004419
X015748Y008484
X015906Y024154
X015938Y002219
X016062Y023519
X016063Y022795
X016161Y008071
X016307Y008590
X016594Y011693
X016601Y012159
X016633Y001622
X016656Y017464
X016876Y025603
X017110Y013091
X017130Y000378
X017210Y006879
X017419Y003300
X017428Y008940
X017520Y015610
X017619Y018665
X018189Y015669
X018191Y014402
X018191Y015166
X018303Y007286
X018304Y022907
X018484Y017244
X018979Y003260
X019130Y007326
X019232Y018701
X019260Y000357
X019272Y008976
X019272Y011673
T2C0.0315F200S100
X010748Y020689
X010748Y021476
T3C0.0394F200S100
X017344Y019687
X019114Y019687
X019114Y022244
X017344Y022244
X019232Y012555
X019232Y013555
X019232Y014555
X019232Y015555
X019232Y016555
T7C0.1299F200S100
X001417Y024843
X009764Y001398
X018366Y024862
X018425Y001339
T5C0.0472F200S100
X012008Y001358
X013008Y001358
X014008Y001358
X015008Y001358
T6C0.0728F200S100
X001555Y001713
X001555Y004024
X001555Y007795
X001555Y010106
X001594Y014409
X001594Y016720
X001614Y020571
X001614Y022882
X003866Y001713
X003866Y004024
X003866Y007795
X003866Y010106
X003906Y014409
X003906Y016720
X003925Y020571
X003925Y022882
T4C0.0433F200S100
X017697Y004921
X017697Y006102
X018878Y004921
X018878Y006102
T8C0.1378F200S100
X002711Y002868
X002711Y008951
X002750Y015565
X002770Y021726
M30
